<svg width="158" height="48" viewBox="0 0 158 48" fill="none" xmlns="http://www.w3.org/2000/svg">
<path d="M91.8 15.5156V32.2676H88.44V20.5796L84.144 32.2676H81.216L76.92 20.6276V32.2676H73.536V15.5156H77.64L82.728 28.1156L87.72 15.5156H91.8ZM97.7201 15.3236V32.2676H94.3361V15.3236H97.7201ZM110.765 15.3236V18.0116H103.637V22.5476H109.349V25.1396H103.637V32.2676H100.253V15.3236H110.765ZM120.466 15.0836C122.05 15.0836 123.482 15.4516 124.762 16.1876C126.058 16.9236 127.074 17.9556 127.81 19.2836C128.562 20.5956 128.938 22.0836 128.938 23.7476C128.938 25.4116 128.562 26.9076 127.81 28.2356C127.074 29.5636 126.058 30.5956 124.762 31.3316C123.482 32.0676 122.05 32.4356 120.466 32.4356C118.882 32.4356 117.442 32.0676 116.146 31.3316C114.866 30.5956 113.85 29.5636 113.098 28.2356C112.362 26.9076 111.994 25.4116 111.994 23.7476C111.994 22.0836 112.362 20.5956 113.098 19.2836C113.85 17.9556 114.866 16.9236 116.146 16.1876C117.442 15.4516 118.882 15.0836 120.466 15.0836ZM120.466 18.2036C119.474 18.2036 118.602 18.4276 117.85 18.8756C117.098 19.3236 116.506 19.9716 116.074 20.8196C115.658 21.6516 115.45 22.6276 115.45 23.7476C115.45 24.8676 115.658 25.8516 116.074 26.6996C116.506 27.5316 117.098 28.1716 117.85 28.6196C118.602 29.0676 119.474 29.2916 120.466 29.2916C121.458 29.2916 122.33 29.0676 123.082 28.6196C123.834 28.1716 124.418 27.5316 124.834 26.6996C125.266 25.8516 125.482 24.8676 125.482 23.7476C125.482 22.6276 125.266 21.6516 124.834 20.8196C124.418 19.9716 123.834 19.3236 123.082 18.8756C122.33 18.4276 121.458 18.2036 120.466 18.2036ZM139.787 32.2676L135.827 25.6676H134.339V32.2676H130.955V15.3236H137.411C139.379 15.3236 140.875 15.8036 141.899 16.7636C142.939 17.7236 143.459 18.9876 143.459 20.5556C143.459 21.8356 143.099 22.9076 142.379 23.7716C141.675 24.6356 140.651 25.2116 139.307 25.4996L143.531 32.2676H139.787ZM134.339 23.3396H137.123C139.059 23.3396 140.027 22.4836 140.027 20.7716C140.027 19.9556 139.787 19.3236 139.307 18.8756C138.843 18.4116 138.115 18.1796 137.123 18.1796H134.339V23.3396ZM156.736 15.3236V18.0116H152.056V32.2676H148.672V18.0116H144.016V15.3236H156.736Z" fill="white"/>
<g clip-path="url(#clip0_87_1205)">
<mask id="mask0_87_1205" style="mask-type:luminance" maskUnits="userSpaceOnUse" x="0" y="0" width="52" height="48">
<path d="M52 0H0V47.2727H52V0Z" fill="white"/>
</mask>
<g mask="url(#mask0_87_1205)">
<path d="M4.09647 0.676758V7.18838L0 6.34271L4.09647 0.676758Z" fill="white"/>
<path d="M5.09961 0L18.7266 9.3869V37.1247L5.09961 27.5687V0Z" fill="white"/>
<path d="M20.7333 0.676758V7.18838L16.6367 6.34271L20.7333 0.676758Z" fill="white"/>
<path d="M21.7363 0L35.3634 9.38689V43.0444L21.7363 33.4884V0Z" fill="white"/>
<path d="M37.37 0.676758V7.18838L33.2734 6.34271L37.37 0.676758Z" fill="white"/>
<path d="M38.373 0L52 9.3869V47.2727L38.373 37.7167V0Z" fill="white"/>
</g>
</g>
<defs>
<clipPath id="clip0_87_1205">
<rect width="52" height="47.2727" fill="white"/>
</clipPath>
</defs>
</svg>
